<svg xmlns="http://www.w3.org/2000/svg" viewBox="0 0 32 32">
  <rect width="32" height="32" rx="8" fill="#0d1117"/>
  <path d="M16 6 C16 6, 8 12, 8 19 C8 23.4 11.6 27 16 27 C20.4 27 24 23.4 24 19 C24 12 16 6 16 6Z" fill="#22c55e" opacity="0.9"/>
  <path d="M16 10 C16 10, 11 15, 11 19 C11 21.8 13.2 24 16 24 C18.8 24 21 21.8 21 19 C21 15 16 10 16 10Z" fill="#16a34a"/>
  <line x1="16" y1="19" x2="16" y2="26" stroke="#15803d" stroke-width="1.5" stroke-linecap="round"/>
  <circle cx="16" cy="14" r="1.5" fill="#4ade80" opacity="0.6"/>
</svg>
